<?xml version="1.0" encoding="utf-8" standalone="no"?>
<!DOCTYPE svg PUBLIC "-//W3C//DTD SVG 1.1//EN"
  "http://www.w3.org/Graphics/SVG/1.1/DTD/svg11.dtd">
<svg xmlns:xlink="http://www.w3.org/1999/xlink" width="745.129412pt" height="564.1575pt" viewBox="0 0 745.129412 564.1575" xmlns="http://www.w3.org/2000/svg" version="1.1">
 <metadata>
  <rdf:RDF xmlns:dc="http://purl.org/dc/elements/1.1/" xmlns:cc="http://creativecommons.org/ns#" xmlns:rdf="http://www.w3.org/1999/02/22-rdf-syntax-ns#">
   <cc:Work>
    <dc:type rdf:resource="http://purl.org/dc/dcmitype/StillImage"/>
    <dc:date>2025-06-04T10:19:20.073732</dc:date>
    <dc:format>image/svg+xml</dc:format>
    <dc:creator>
     <cc:Agent>
      <dc:title>Matplotlib v3.10.3, https://matplotlib.org/</dc:title>
     </cc:Agent>
    </dc:creator>
   </cc:Work>
  </rdf:RDF>
 </metadata>
 <defs>
  <style type="text/css">*{stroke-linejoin: round; stroke-linecap: butt}</style>
 </defs>
 <g id="figure_1">
  <g id="patch_1">
   <path d="M 0 564.1575 
L 745.129412 564.1575 
L 745.129412 0 
L 0 0 
z
" style="fill: #ffffff"/>
  </g>
  <g id="axes_1">
   <g id="patch_2">
    <path d="M 68.094118 136.788088 
L 189.882353 136.788088 
Q 195.971765 136.788088 195.971765 130.698676 
L 195.971765 69.804559 
Q 195.971765 63.715147 189.882353 63.715147 
L 68.094118 63.715147 
Q 62.004706 63.715147 62.004706 69.804559 
L 62.004706 130.698676 
Q 62.004706 136.788088 68.094118 136.788088 
z
" clip-path="url(#p5feb3d4a54)" style="fill: #e8f4fd; stroke: #000000; stroke-width: 1.5; stroke-linejoin: miter"/>
   </g>
   <g id="patch_3">
    <path d="M 68.094118 228.129265 
L 189.882353 228.129265 
Q 195.971765 228.129265 195.971765 222.039853 
L 195.971765 161.145735 
Q 195.971765 155.056324 189.882353 155.056324 
L 68.094118 155.056324 
Q 62.004706 155.056324 62.004706 161.145735 
L 62.004706 222.039853 
Q 62.004706 228.129265 68.094118 228.129265 
z
" clip-path="url(#p5feb3d4a54)" style="fill: #d1ecf1; stroke: #000000; stroke-width: 1.5; stroke-linejoin: miter"/>
   </g>
   <g id="patch_4">
    <path d="M 281.223529 182.458676 
L 463.905882 182.458676 
Q 469.995294 182.458676 469.995294 176.369265 
L 469.995294 85.028088 
Q 469.995294 78.938676 463.905882 78.938676 
L 281.223529 78.938676 
Q 275.134118 78.938676 275.134118 85.028088 
L 275.134118 176.369265 
Q 275.134118 182.458676 281.223529 182.458676 
z
" clip-path="url(#p5feb3d4a54)" style="fill: #fff3cd; stroke: #000000; stroke-width: 1.5; stroke-linejoin: miter"/>
   </g>
   <g id="patch_5">
    <path d="M 250.776471 289.023382 
L 372.564706 289.023382 
Q 378.654118 289.023382 378.654118 282.933971 
L 378.654118 222.039853 
Q 378.654118 215.950441 372.564706 215.950441 
L 250.776471 215.950441 
Q 244.687059 215.950441 244.687059 222.039853 
L 244.687059 282.933971 
Q 244.687059 289.023382 250.776471 289.023382 
z
" clip-path="url(#p5feb3d4a54)" style="fill: #f8d7da; stroke: #000000; stroke-width: 1.5; stroke-linejoin: miter"/>
   </g>
   <g id="patch_6">
    <path d="M 372.564706 289.023382 
L 494.352941 289.023382 
Q 500.442353 289.023382 500.442353 282.933971 
L 500.442353 222.039853 
Q 500.442353 215.950441 494.352941 215.950441 
L 372.564706 215.950441 
Q 366.475294 215.950441 366.475294 222.039853 
L 366.475294 282.933971 
Q 366.475294 289.023382 372.564706 289.023382 
z
" clip-path="url(#p5feb3d4a54)" style="fill: #f8d7da; stroke: #000000; stroke-width: 1.5; stroke-linejoin: miter"/>
   </g>
   <g id="patch_7">
    <path d="M 68.094118 410.811618 
L 220.329412 410.811618 
Q 226.418824 410.811618 226.418824 404.722206 
L 226.418824 313.381029 
Q 226.418824 307.291618 220.329412 307.291618 
L 68.094118 307.291618 
Q 62.004706 307.291618 62.004706 313.381029 
L 62.004706 404.722206 
Q 62.004706 410.811618 68.094118 410.811618 
z
" clip-path="url(#p5feb3d4a54)" style="fill: #d4edda; stroke: #000000; stroke-width: 1.5; stroke-linejoin: miter"/>
   </g>
   <g id="patch_8">
    <path d="M 281.223529 410.811618 
L 433.458824 410.811618 
Q 439.548235 410.811618 439.548235 404.722206 
L 439.548235 313.381029 
Q 439.548235 307.291618 433.458824 307.291618 
L 281.223529 307.291618 
Q 275.134118 307.291618 275.134118 313.381029 
L 275.134118 404.722206 
Q 275.134118 410.811618 281.223529 410.811618 
z
" clip-path="url(#p5feb3d4a54)" style="fill: #d4edda; stroke: #000000; stroke-width: 1.5; stroke-linejoin: miter"/>
   </g>
   <g id="patch_9">
    <path d="M 524.8 410.811618 
L 677.035294 410.811618 
Q 683.124706 410.811618 683.124706 404.722206 
L 683.124706 313.381029 
Q 683.124706 307.291618 677.035294 307.291618 
L 524.8 307.291618 
Q 518.710588 307.291618 518.710588 313.381029 
L 518.710588 404.722206 
Q 518.710588 410.811618 524.8 410.811618 
z
" clip-path="url(#p5feb3d4a54)" style="fill: #e2e3e5; stroke: #000000; stroke-width: 1.5; stroke-linejoin: miter"/>
   </g>
   <g id="patch_10">
    <path d="M 281.223529 532.599853 
L 463.905882 532.599853 
Q 469.995294 532.599853 469.995294 526.510441 
L 469.995294 465.616324 
Q 469.995294 459.526912 463.905882 459.526912 
L 281.223529 459.526912 
Q 275.134118 459.526912 275.134118 465.616324 
L 275.134118 526.510441 
Q 275.134118 532.599853 281.223529 532.599853 
z
" clip-path="url(#p5feb3d4a54)" style="fill: #f0f0f0; stroke: #000000; stroke-width: 1.5; stroke-linejoin: miter"/>
   </g>
   <g id="text_1">
    <!-- Raw EEG Data -->
    <g transform="translate(89.439017 97.373024) scale(0.1 -0.1)">
     <defs>
      <path id="DejaVuSans-Bold-52" d="M 2297 2597 
Q 2675 2597 2839 2737 
Q 3003 2878 3003 3200 
Q 3003 3519 2839 3656 
Q 2675 3794 2297 3794 
L 1791 3794 
L 1791 2597 
L 2297 2597 
z
M 1791 1766 
L 1791 0 
L 588 0 
L 588 4666 
L 2425 4666 
Q 3347 4666 3776 4356 
Q 4206 4047 4206 3378 
Q 4206 2916 3982 2619 
Q 3759 2322 3309 2181 
Q 3556 2125 3751 1926 
Q 3947 1728 4147 1325 
L 4800 0 
L 3519 0 
L 2950 1159 
Q 2778 1509 2601 1637 
Q 2425 1766 2131 1766 
L 1791 1766 
z
" transform="scale(0.015625)"/>
      <path id="DejaVuSans-Bold-61" d="M 2106 1575 
Q 1756 1575 1579 1456 
Q 1403 1338 1403 1106 
Q 1403 894 1545 773 
Q 1688 653 1941 653 
Q 2256 653 2472 879 
Q 2688 1106 2688 1447 
L 2688 1575 
L 2106 1575 
z
M 3816 1997 
L 3816 0 
L 2688 0 
L 2688 519 
Q 2463 200 2181 54 
Q 1900 -91 1497 -91 
Q 953 -91 614 226 
Q 275 544 275 1050 
Q 275 1666 698 1953 
Q 1122 2241 2028 2241 
L 2688 2241 
L 2688 2328 
Q 2688 2594 2478 2717 
Q 2269 2841 1825 2841 
Q 1466 2841 1156 2769 
Q 847 2697 581 2553 
L 581 3406 
Q 941 3494 1303 3539 
Q 1666 3584 2028 3584 
Q 2975 3584 3395 3211 
Q 3816 2838 3816 1997 
z
" transform="scale(0.015625)"/>
      <path id="DejaVuSans-Bold-77" d="M 225 3500 
L 1313 3500 
L 1900 1088 
L 2491 3500 
L 3425 3500 
L 4013 1113 
L 4603 3500 
L 5691 3500 
L 4769 0 
L 3547 0 
L 2956 2406 
L 2369 0 
L 1147 0 
L 225 3500 
z
" transform="scale(0.015625)"/>
      <path id="DejaVuSans-Bold-20" transform="scale(0.015625)"/>
      <path id="DejaVuSans-Bold-45" d="M 588 4666 
L 3834 4666 
L 3834 3756 
L 1791 3756 
L 1791 2888 
L 3713 2888 
L 3713 1978 
L 1791 1978 
L 1791 909 
L 3903 909 
L 3903 0 
L 588 0 
L 588 4666 
z
" transform="scale(0.015625)"/>
      <path id="DejaVuSans-Bold-47" d="M 4781 347 
Q 4331 128 3847 18 
Q 3363 -91 2847 -91 
Q 1681 -91 1000 561 
Q 319 1213 319 2328 
Q 319 3456 1012 4103 
Q 1706 4750 2913 4750 
Q 3378 4750 3804 4662 
Q 4231 4575 4609 4403 
L 4609 3438 
Q 4219 3659 3833 3768 
Q 3447 3878 3059 3878 
Q 2341 3878 1952 3476 
Q 1563 3075 1563 2328 
Q 1563 1588 1938 1184 
Q 2313 781 3003 781 
Q 3191 781 3352 804 
Q 3513 828 3641 878 
L 3641 1784 
L 2906 1784 
L 2906 2591 
L 4781 2591 
L 4781 347 
z
" transform="scale(0.015625)"/>
      <path id="DejaVuSans-Bold-44" d="M 1791 3756 
L 1791 909 
L 2222 909 
Q 2959 909 3348 1275 
Q 3738 1641 3738 2338 
Q 3738 3031 3350 3393 
Q 2963 3756 2222 3756 
L 1791 3756 
z
M 588 4666 
L 1856 4666 
Q 2919 4666 3439 4514 
Q 3959 4363 4331 4000 
Q 4659 3684 4818 3271 
Q 4978 2859 4978 2338 
Q 4978 1809 4818 1395 
Q 4659 981 4331 666 
Q 3956 303 3431 151 
Q 2906 0 1856 0 
L 588 0 
L 588 4666 
z
" transform="scale(0.015625)"/>
      <path id="DejaVuSans-Bold-74" d="M 1759 4494 
L 1759 3500 
L 2913 3500 
L 2913 2700 
L 1759 2700 
L 1759 1216 
Q 1759 972 1856 886 
Q 1953 800 2241 800 
L 2816 800 
L 2816 0 
L 1856 0 
Q 1194 0 917 276 
Q 641 553 641 1216 
L 641 2700 
L 84 2700 
L 84 3500 
L 641 3500 
L 641 4494 
L 1759 4494 
z
" transform="scale(0.015625)"/>
     </defs>
     <use xlink:href="#DejaVuSans-Bold-52"/>
     <use xlink:href="#DejaVuSans-Bold-61" transform="translate(77.001953 0)"/>
     <use xlink:href="#DejaVuSans-Bold-77" transform="translate(144.482422 0)"/>
     <use xlink:href="#DejaVuSans-Bold-20" transform="translate(236.865234 0)"/>
     <use xlink:href="#DejaVuSans-Bold-45" transform="translate(271.679688 0)"/>
     <use xlink:href="#DejaVuSans-Bold-45" transform="translate(339.990234 0)"/>
     <use xlink:href="#DejaVuSans-Bold-47" transform="translate(408.300781 0)"/>
     <use xlink:href="#DejaVuSans-Bold-20" transform="translate(490.380859 0)"/>
     <use xlink:href="#DejaVuSans-Bold-44" transform="translate(525.195312 0)"/>
     <use xlink:href="#DejaVuSans-Bold-61" transform="translate(608.203125 0)"/>
     <use xlink:href="#DejaVuSans-Bold-74" transform="translate(675.683594 0)"/>
     <use xlink:href="#DejaVuSans-Bold-61" transform="translate(723.486328 0)"/>
    </g>
    <!-- (MindBigData) -->
    <g transform="translate(88.196829 108.570836) scale(0.1 -0.1)">
     <defs>
      <path id="DejaVuSans-Bold-28" d="M 2413 -844 
L 1484 -844 
Q 1006 -72 778 623 
Q 550 1319 550 2003 
Q 550 2688 779 3389 
Q 1009 4091 1484 4856 
L 2413 4856 
Q 2013 4116 1813 3408 
Q 1613 2700 1613 2009 
Q 1613 1319 1811 609 
Q 2009 -100 2413 -844 
z
" transform="scale(0.015625)"/>
      <path id="DejaVuSans-Bold-4d" d="M 588 4666 
L 2119 4666 
L 3181 2169 
L 4250 4666 
L 5778 4666 
L 5778 0 
L 4641 0 
L 4641 3413 
L 3566 897 
L 2803 897 
L 1728 3413 
L 1728 0 
L 588 0 
L 588 4666 
z
" transform="scale(0.015625)"/>
      <path id="DejaVuSans-Bold-69" d="M 538 3500 
L 1656 3500 
L 1656 0 
L 538 0 
L 538 3500 
z
M 538 4863 
L 1656 4863 
L 1656 3950 
L 538 3950 
L 538 4863 
z
" transform="scale(0.015625)"/>
      <path id="DejaVuSans-Bold-6e" d="M 4056 2131 
L 4056 0 
L 2931 0 
L 2931 347 
L 2931 1631 
Q 2931 2084 2911 2256 
Q 2891 2428 2841 2509 
Q 2775 2619 2662 2680 
Q 2550 2741 2406 2741 
Q 2056 2741 1856 2470 
Q 1656 2200 1656 1722 
L 1656 0 
L 538 0 
L 538 3500 
L 1656 3500 
L 1656 2988 
Q 1909 3294 2193 3439 
Q 2478 3584 2822 3584 
Q 3428 3584 3742 3212 
Q 4056 2841 4056 2131 
z
" transform="scale(0.015625)"/>
      <path id="DejaVuSans-Bold-64" d="M 2919 2988 
L 2919 4863 
L 4044 4863 
L 4044 0 
L 2919 0 
L 2919 506 
Q 2688 197 2409 53 
Q 2131 -91 1766 -91 
Q 1119 -91 703 423 
Q 288 938 288 1747 
Q 288 2556 703 3070 
Q 1119 3584 1766 3584 
Q 2128 3584 2408 3439 
Q 2688 3294 2919 2988 
z
M 2181 722 
Q 2541 722 2730 984 
Q 2919 1247 2919 1747 
Q 2919 2247 2730 2509 
Q 2541 2772 2181 2772 
Q 1825 2772 1636 2509 
Q 1447 2247 1447 1747 
Q 1447 1247 1636 984 
Q 1825 722 2181 722 
z
" transform="scale(0.015625)"/>
      <path id="DejaVuSans-Bold-42" d="M 2456 2859 
Q 2741 2859 2887 2984 
Q 3034 3109 3034 3353 
Q 3034 3594 2887 3720 
Q 2741 3847 2456 3847 
L 1791 3847 
L 1791 2859 
L 2456 2859 
z
M 2497 819 
Q 2859 819 3042 972 
Q 3225 1125 3225 1434 
Q 3225 1738 3044 1889 
Q 2863 2041 2497 2041 
L 1791 2041 
L 1791 819 
L 2497 819 
z
M 3616 2497 
Q 4003 2384 4215 2081 
Q 4428 1778 4428 1338 
Q 4428 663 3972 331 
Q 3516 0 2584 0 
L 588 0 
L 588 4666 
L 2394 4666 
Q 3366 4666 3802 4372 
Q 4238 4078 4238 3431 
Q 4238 3091 4078 2852 
Q 3919 2613 3616 2497 
z
" transform="scale(0.015625)"/>
      <path id="DejaVuSans-Bold-67" d="M 2919 594 
Q 2688 288 2409 144 
Q 2131 0 1766 0 
Q 1125 0 706 504 
Q 288 1009 288 1791 
Q 288 2575 706 3076 
Q 1125 3578 1766 3578 
Q 2131 3578 2409 3434 
Q 2688 3291 2919 2981 
L 2919 3500 
L 4044 3500 
L 4044 353 
Q 4044 -491 3511 -936 
Q 2978 -1381 1966 -1381 
Q 1638 -1381 1331 -1331 
Q 1025 -1281 716 -1178 
L 716 -306 
Q 1009 -475 1290 -558 
Q 1572 -641 1856 -641 
Q 2406 -641 2662 -400 
Q 2919 -159 2919 353 
L 2919 594 
z
M 2181 2772 
Q 1834 2772 1640 2515 
Q 1447 2259 1447 1791 
Q 1447 1309 1634 1061 
Q 1822 813 2181 813 
Q 2531 813 2725 1069 
Q 2919 1325 2919 1791 
Q 2919 2259 2725 2515 
Q 2531 2772 2181 2772 
z
" transform="scale(0.015625)"/>
      <path id="DejaVuSans-Bold-29" d="M 513 -844 
Q 913 -100 1113 609 
Q 1313 1319 1313 2009 
Q 1313 2700 1113 3408 
Q 913 4116 513 4856 
L 1441 4856 
Q 1916 4091 2145 3389 
Q 2375 2688 2375 2003 
Q 2375 1319 2147 623 
Q 1919 -72 1441 -844 
L 513 -844 
z
" transform="scale(0.015625)"/>
     </defs>
     <use xlink:href="#DejaVuSans-Bold-28"/>
     <use xlink:href="#DejaVuSans-Bold-4d" transform="translate(45.703125 0)"/>
     <use xlink:href="#DejaVuSans-Bold-69" transform="translate(145.214844 0)"/>
     <use xlink:href="#DejaVuSans-Bold-6e" transform="translate(179.492188 0)"/>
     <use xlink:href="#DejaVuSans-Bold-64" transform="translate(250.683594 0)"/>
     <use xlink:href="#DejaVuSans-Bold-42" transform="translate(322.265625 0)"/>
     <use xlink:href="#DejaVuSans-Bold-69" transform="translate(398.486328 0)"/>
     <use xlink:href="#DejaVuSans-Bold-67" transform="translate(432.763672 0)"/>
     <use xlink:href="#DejaVuSans-Bold-44" transform="translate(504.345703 0)"/>
     <use xlink:href="#DejaVuSans-Bold-61" transform="translate(587.353516 0)"/>
     <use xlink:href="#DejaVuSans-Bold-74" transform="translate(654.833984 0)"/>
     <use xlink:href="#DejaVuSans-Bold-61" transform="translate(702.636719 0)"/>
     <use xlink:href="#DejaVuSans-Bold-29" transform="translate(770.117188 0)"/>
    </g>
   </g>
   <g id="text_2">
    <!-- Preprocessing -->
    <g transform="translate(88.827298 188.675138) scale(0.1 -0.1)">
     <defs>
      <path id="DejaVuSans-Bold-50" d="M 588 4666 
L 2584 4666 
Q 3475 4666 3951 4270 
Q 4428 3875 4428 3144 
Q 4428 2409 3951 2014 
Q 3475 1619 2584 1619 
L 1791 1619 
L 1791 0 
L 588 0 
L 588 4666 
z
M 1791 3794 
L 1791 2491 
L 2456 2491 
Q 2806 2491 2997 2661 
Q 3188 2831 3188 3144 
Q 3188 3456 2997 3625 
Q 2806 3794 2456 3794 
L 1791 3794 
z
" transform="scale(0.015625)"/>
      <path id="DejaVuSans-Bold-72" d="M 3138 2547 
Q 2991 2616 2845 2648 
Q 2700 2681 2553 2681 
Q 2122 2681 1889 2404 
Q 1656 2128 1656 1613 
L 1656 0 
L 538 0 
L 538 3500 
L 1656 3500 
L 1656 2925 
Q 1872 3269 2151 3426 
Q 2431 3584 2822 3584 
Q 2878 3584 2943 3579 
Q 3009 3575 3134 3559 
L 3138 2547 
z
" transform="scale(0.015625)"/>
      <path id="DejaVuSans-Bold-65" d="M 4031 1759 
L 4031 1441 
L 1416 1441 
Q 1456 1047 1700 850 
Q 1944 653 2381 653 
Q 2734 653 3104 758 
Q 3475 863 3866 1075 
L 3866 213 
Q 3469 63 3072 -14 
Q 2675 -91 2278 -91 
Q 1328 -91 801 392 
Q 275 875 275 1747 
Q 275 2603 792 3093 
Q 1309 3584 2216 3584 
Q 3041 3584 3536 3087 
Q 4031 2591 4031 1759 
z
M 2881 2131 
Q 2881 2450 2695 2645 
Q 2509 2841 2209 2841 
Q 1884 2841 1681 2658 
Q 1478 2475 1428 2131 
L 2881 2131 
z
" transform="scale(0.015625)"/>
      <path id="DejaVuSans-Bold-70" d="M 1656 506 
L 1656 -1331 
L 538 -1331 
L 538 3500 
L 1656 3500 
L 1656 2988 
Q 1888 3294 2169 3439 
Q 2450 3584 2816 3584 
Q 3463 3584 3878 3070 
Q 4294 2556 4294 1747 
Q 4294 938 3878 423 
Q 3463 -91 2816 -91 
Q 2450 -91 2169 54 
Q 1888 200 1656 506 
z
M 2400 2772 
Q 2041 2772 1848 2508 
Q 1656 2244 1656 1747 
Q 1656 1250 1848 986 
Q 2041 722 2400 722 
Q 2759 722 2948 984 
Q 3138 1247 3138 1747 
Q 3138 2247 2948 2509 
Q 2759 2772 2400 2772 
z
" transform="scale(0.015625)"/>
      <path id="DejaVuSans-Bold-6f" d="M 2203 2784 
Q 1831 2784 1636 2517 
Q 1441 2250 1441 1747 
Q 1441 1244 1636 976 
Q 1831 709 2203 709 
Q 2569 709 2762 976 
Q 2956 1244 2956 1747 
Q 2956 2250 2762 2517 
Q 2569 2784 2203 2784 
z
M 2203 3584 
Q 3106 3584 3614 3096 
Q 4122 2609 4122 1747 
Q 4122 884 3614 396 
Q 3106 -91 2203 -91 
Q 1297 -91 786 396 
Q 275 884 275 1747 
Q 275 2609 786 3096 
Q 1297 3584 2203 3584 
z
" transform="scale(0.015625)"/>
      <path id="DejaVuSans-Bold-63" d="M 3366 3391 
L 3366 2478 
Q 3138 2634 2908 2709 
Q 2678 2784 2431 2784 
Q 1963 2784 1702 2511 
Q 1441 2238 1441 1747 
Q 1441 1256 1702 982 
Q 1963 709 2431 709 
Q 2694 709 2930 787 
Q 3166 866 3366 1019 
L 3366 103 
Q 3103 6 2833 -42 
Q 2563 -91 2291 -91 
Q 1344 -91 809 395 
Q 275 881 275 1747 
Q 275 2613 809 3098 
Q 1344 3584 2291 3584 
Q 2566 3584 2833 3536 
Q 3100 3488 3366 3391 
z
" transform="scale(0.015625)"/>
      <path id="DejaVuSans-Bold-73" d="M 3272 3391 
L 3272 2541 
Q 2913 2691 2578 2766 
Q 2244 2841 1947 2841 
Q 1628 2841 1473 2761 
Q 1319 2681 1319 2516 
Q 1319 2381 1436 2309 
Q 1553 2238 1856 2203 
L 2053 2175 
Q 2913 2066 3209 1816 
Q 3506 1566 3506 1031 
Q 3506 472 3093 190 
Q 2681 -91 1863 -91 
Q 1516 -91 1145 -36 
Q 775 19 384 128 
L 384 978 
Q 719 816 1070 734 
Q 1422 653 1784 653 
Q 2113 653 2278 743 
Q 2444 834 2444 1013 
Q 2444 1163 2330 1236 
Q 2216 1309 1875 1350 
L 1678 1375 
Q 931 1469 631 1722 
Q 331 1975 331 2491 
Q 331 3047 712 3315 
Q 1094 3584 1881 3584 
Q 2191 3584 2531 3537 
Q 2872 3491 3272 3391 
z
" transform="scale(0.015625)"/>
     </defs>
     <use xlink:href="#DejaVuSans-Bold-50"/>
     <use xlink:href="#DejaVuSans-Bold-72" transform="translate(73.291016 0)"/>
     <use xlink:href="#DejaVuSans-Bold-65" transform="translate(122.607422 0)"/>
     <use xlink:href="#DejaVuSans-Bold-70" transform="translate(190.429688 0)"/>
     <use xlink:href="#DejaVuSans-Bold-72" transform="translate(262.011719 0)"/>
     <use xlink:href="#DejaVuSans-Bold-6f" transform="translate(311.328125 0)"/>
     <use xlink:href="#DejaVuSans-Bold-63" transform="translate(380.029297 0)"/>
     <use xlink:href="#DejaVuSans-Bold-65" transform="translate(439.306641 0)"/>
     <use xlink:href="#DejaVuSans-Bold-73" transform="translate(507.128906 0)"/>
     <use xlink:href="#DejaVuSans-Bold-73" transform="translate(566.650391 0)"/>
     <use xlink:href="#DejaVuSans-Bold-69" transform="translate(626.171875 0)"/>
     <use xlink:href="#DejaVuSans-Bold-6e" transform="translate(660.449219 0)"/>
     <use xlink:href="#DejaVuSans-Bold-67" transform="translate(731.640625 0)"/>
    </g>
    <!-- &amp; Filtering -->
    <g transform="translate(98.944485 199.951075) scale(0.1 -0.1)">
     <defs>
      <path id="DejaVuSans-Bold-26" d="M 2497 3097 
L 3775 1691 
Q 3941 1909 4027 2181 
Q 4113 2453 4128 2797 
L 5100 2797 
Q 5053 2228 4879 1784 
Q 4706 1341 4397 1006 
L 5313 0 
L 3988 0 
L 3681 341 
Q 3353 122 2990 15 
Q 2628 -91 2222 -91 
Q 1400 -91 892 342 
Q 384 775 384 1459 
Q 384 1916 607 2267 
Q 831 2619 1338 2950 
Q 1206 3116 1143 3281 
Q 1081 3447 1081 3628 
Q 1081 4138 1478 4444 
Q 1875 4750 2534 4750 
Q 2819 4750 3126 4704 
Q 3434 4659 3769 4569 
L 3769 3700 
Q 3475 3850 3212 3922 
Q 2950 3994 2700 3994 
Q 2459 3994 2326 3901 
Q 2194 3809 2194 3641 
Q 2194 3534 2270 3398 
Q 2347 3263 2497 3097 
z
M 1875 2322 
Q 1672 2175 1569 1989 
Q 1466 1803 1466 1581 
Q 1466 1222 1731 969 
Q 1997 716 2369 716 
Q 2578 716 2759 780 
Q 2941 844 3097 972 
L 1875 2322 
z
" transform="scale(0.015625)"/>
      <path id="DejaVuSans-Bold-46" d="M 588 4666 
L 3834 4666 
L 3834 3756 
L 1791 3756 
L 1791 2888 
L 3713 2888 
L 3713 1978 
L 1791 1978 
L 1791 0 
L 588 0 
L 588 4666 
z
" transform="scale(0.015625)"/>
      <path id="DejaVuSans-Bold-6c" d="M 538 4863 
L 1656 4863 
L 1656 0 
L 538 0 
L 538 4863 
z
" transform="scale(0.015625)"/>
     </defs>
     <use xlink:href="#DejaVuSans-Bold-26"/>
     <use xlink:href="#DejaVuSans-Bold-20" transform="translate(87.207031 0)"/>
     <use xlink:href="#DejaVuSans-Bold-46" transform="translate(122.021484 0)"/>
     <use xlink:href="#DejaVuSans-Bold-69" transform="translate(190.332031 0)"/>
     <use xlink:href="#DejaVuSans-Bold-6c" transform="translate(224.609375 0)"/>
     <use xlink:href="#DejaVuSans-Bold-74" transform="translate(258.886719 0)"/>
     <use xlink:href="#DejaVuSans-Bold-65" transform="translate(306.689453 0)"/>
     <use xlink:href="#DejaVuSans-Bold-72" transform="translate(374.511719 0)"/>
     <use xlink:href="#DejaVuSans-Bold-69" transform="translate(423.828125 0)"/>
     <use xlink:href="#DejaVuSans-Bold-6e" transform="translate(458.105469 0)"/>
     <use xlink:href="#DejaVuSans-Bold-67" transform="translate(529.296875 0)"/>
    </g>
   </g>
   <g id="text_3">
    <!-- Feature Extraction -->
    <g transform="translate(320.103768 133.458051) scale(0.1 -0.1)">
     <defs>
      <path id="DejaVuSans-Bold-75" d="M 500 1363 
L 500 3500 
L 1625 3500 
L 1625 3150 
Q 1625 2866 1622 2436 
Q 1619 2006 1619 1863 
Q 1619 1441 1641 1255 
Q 1663 1069 1716 984 
Q 1784 875 1895 815 
Q 2006 756 2150 756 
Q 2500 756 2700 1025 
Q 2900 1294 2900 1772 
L 2900 3500 
L 4019 3500 
L 4019 0 
L 2900 0 
L 2900 506 
Q 2647 200 2364 54 
Q 2081 -91 1741 -91 
Q 1134 -91 817 281 
Q 500 653 500 1363 
z
" transform="scale(0.015625)"/>
      <path id="DejaVuSans-Bold-78" d="M 1422 1791 
L 159 3500 
L 1344 3500 
L 2059 2463 
L 2784 3500 
L 3969 3500 
L 2706 1797 
L 4031 0 
L 2847 0 
L 2059 1106 
L 1281 0 
L 97 0 
L 1422 1791 
z
" transform="scale(0.015625)"/>
     </defs>
     <use xlink:href="#DejaVuSans-Bold-46"/>
     <use xlink:href="#DejaVuSans-Bold-65" transform="translate(64.310547 0)"/>
     <use xlink:href="#DejaVuSans-Bold-61" transform="translate(132.132812 0)"/>
     <use xlink:href="#DejaVuSans-Bold-74" transform="translate(199.613281 0)"/>
     <use xlink:href="#DejaVuSans-Bold-75" transform="translate(247.416016 0)"/>
     <use xlink:href="#DejaVuSans-Bold-72" transform="translate(318.607422 0)"/>
     <use xlink:href="#DejaVuSans-Bold-65" transform="translate(367.923828 0)"/>
     <use xlink:href="#DejaVuSans-Bold-20" transform="translate(435.746094 0)"/>
     <use xlink:href="#DejaVuSans-Bold-45" transform="translate(470.560547 0)"/>
     <use xlink:href="#DejaVuSans-Bold-78" transform="translate(538.871094 0)"/>
     <use xlink:href="#DejaVuSans-Bold-74" transform="translate(603.373047 0)"/>
     <use xlink:href="#DejaVuSans-Bold-72" transform="translate(651.175781 0)"/>
     <use xlink:href="#DejaVuSans-Bold-61" transform="translate(700.492188 0)"/>
     <use xlink:href="#DejaVuSans-Bold-63" transform="translate(767.972656 0)"/>
     <use xlink:href="#DejaVuSans-Bold-74" transform="translate(827.25 0)"/>
     <use xlink:href="#DejaVuSans-Bold-69" transform="translate(875.052734 0)"/>
     <use xlink:href="#DejaVuSans-Bold-6f" transform="translate(909.330078 0)"/>
     <use xlink:href="#DejaVuSans-Bold-6e" transform="translate(978.03125 0)"/>
    </g>
   </g>
   <g id="text_4">
    <!-- Wavelet Features -->
    <g transform="translate(262.312776 249.647381) scale(0.1 -0.1)">
     <defs>
      <path id="DejaVuSans-Bold-57" d="M 191 4666 
L 1344 4666 
L 2150 1275 
L 2950 4666 
L 4109 4666 
L 4909 1275 
L 5716 4666 
L 6859 4666 
L 5759 0 
L 4372 0 
L 3525 3547 
L 2688 0 
L 1300 0 
L 191 4666 
z
" transform="scale(0.015625)"/>
      <path id="DejaVuSans-Bold-76" d="M 97 3500 
L 1216 3500 
L 2088 1081 
L 2956 3500 
L 4078 3500 
L 2700 0 
L 1472 0 
L 97 3500 
z
" transform="scale(0.015625)"/>
     </defs>
     <use xlink:href="#DejaVuSans-Bold-57"/>
     <use xlink:href="#DejaVuSans-Bold-61" transform="translate(106.677734 0)"/>
     <use xlink:href="#DejaVuSans-Bold-76" transform="translate(174.158203 0)"/>
     <use xlink:href="#DejaVuSans-Bold-65" transform="translate(239.34375 0)"/>
     <use xlink:href="#DejaVuSans-Bold-6c" transform="translate(307.166016 0)"/>
     <use xlink:href="#DejaVuSans-Bold-65" transform="translate(341.443359 0)"/>
     <use xlink:href="#DejaVuSans-Bold-74" transform="translate(409.265625 0)"/>
     <use xlink:href="#DejaVuSans-Bold-20" transform="translate(457.068359 0)"/>
     <use xlink:href="#DejaVuSans-Bold-46" transform="translate(491.882812 0)"/>
     <use xlink:href="#DejaVuSans-Bold-65" transform="translate(556.193359 0)"/>
     <use xlink:href="#DejaVuSans-Bold-61" transform="translate(624.015625 0)"/>
     <use xlink:href="#DejaVuSans-Bold-74" transform="translate(691.496094 0)"/>
     <use xlink:href="#DejaVuSans-Bold-75" transform="translate(739.298828 0)"/>
     <use xlink:href="#DejaVuSans-Bold-72" transform="translate(810.490234 0)"/>
     <use xlink:href="#DejaVuSans-Bold-65" transform="translate(859.806641 0)"/>
     <use xlink:href="#DejaVuSans-Bold-73" transform="translate(927.628906 0)"/>
    </g>
    <!-- (DWT, WPD, CWT) -->
    <g transform="translate(261.530744 260.845193) scale(0.1 -0.1)">
     <defs>
      <path id="DejaVuSans-Bold-54" d="M 31 4666 
L 4331 4666 
L 4331 3756 
L 2784 3756 
L 2784 0 
L 1581 0 
L 1581 3756 
L 31 3756 
L 31 4666 
z
" transform="scale(0.015625)"/>
      <path id="DejaVuSans-Bold-2c" d="M 653 1209 
L 1778 1209 
L 1778 256 
L 1006 -909 
L 341 -909 
L 653 256 
L 653 1209 
z
" transform="scale(0.015625)"/>
      <path id="DejaVuSans-Bold-43" d="M 4288 256 
Q 3956 84 3597 -3 
Q 3238 -91 2847 -91 
Q 1681 -91 1000 561 
Q 319 1213 319 2328 
Q 319 3447 1000 4098 
Q 1681 4750 2847 4750 
Q 3238 4750 3597 4662 
Q 3956 4575 4288 4403 
L 4288 3438 
Q 3953 3666 3628 3772 
Q 3303 3878 2944 3878 
Q 2300 3878 1931 3465 
Q 1563 3053 1563 2328 
Q 1563 1606 1931 1193 
Q 2300 781 2944 781 
Q 3303 781 3628 887 
Q 3953 994 4288 1222 
L 4288 256 
z
" transform="scale(0.015625)"/>
     </defs>
     <use xlink:href="#DejaVuSans-Bold-28"/>
     <use xlink:href="#DejaVuSans-Bold-44" transform="translate(45.703125 0)"/>
     <use xlink:href="#DejaVuSans-Bold-57" transform="translate(128.710938 0)"/>
     <use xlink:href="#DejaVuSans-Bold-54" transform="translate(239.013672 0)"/>
     <use xlink:href="#DejaVuSans-Bold-2c" transform="translate(292.976562 0)"/>
     <use xlink:href="#DejaVuSans-Bold-20" transform="translate(330.964844 0)"/>
     <use xlink:href="#DejaVuSans-Bold-57" transform="translate(365.779297 0)"/>
     <use xlink:href="#DejaVuSans-Bold-50" transform="translate(476.082031 0)"/>
     <use xlink:href="#DejaVuSans-Bold-44" transform="translate(549.373047 0)"/>
     <use xlink:href="#DejaVuSans-Bold-2c" transform="translate(632.380859 0)"/>
     <use xlink:href="#DejaVuSans-Bold-20" transform="translate(670.369141 0)"/>
     <use xlink:href="#DejaVuSans-Bold-43" transform="translate(705.183594 0)"/>
     <use xlink:href="#DejaVuSans-Bold-57" transform="translate(778.572266 0)"/>
     <use xlink:href="#DejaVuSans-Bold-54" transform="translate(888.875 0)"/>
     <use xlink:href="#DejaVuSans-Bold-29" transform="translate(957.087891 0)"/>
    </g>
   </g>
   <g id="text_5">
    <!-- Raw EEG -->
    <g transform="translate(408.939292 249.647381) scale(0.1 -0.1)">
     <use xlink:href="#DejaVuSans-Bold-52"/>
     <use xlink:href="#DejaVuSans-Bold-61" transform="translate(77.001953 0)"/>
     <use xlink:href="#DejaVuSans-Bold-77" transform="translate(144.482422 0)"/>
     <use xlink:href="#DejaVuSans-Bold-20" transform="translate(236.865234 0)"/>
     <use xlink:href="#DejaVuSans-Bold-45" transform="translate(271.679688 0)"/>
     <use xlink:href="#DejaVuSans-Bold-45" transform="translate(339.990234 0)"/>
     <use xlink:href="#DejaVuSans-Bold-47" transform="translate(408.300781 0)"/>
    </g>
    <!-- Channels -->
    <g transform="translate(407.655699 260.845193) scale(0.1 -0.1)">
     <defs>
      <path id="DejaVuSans-Bold-68" d="M 4056 2131 
L 4056 0 
L 2931 0 
L 2931 347 
L 2931 1625 
Q 2931 2084 2911 2256 
Q 2891 2428 2841 2509 
Q 2775 2619 2662 2680 
Q 2550 2741 2406 2741 
Q 2056 2741 1856 2470 
Q 1656 2200 1656 1722 
L 1656 0 
L 538 0 
L 538 4863 
L 1656 4863 
L 1656 2988 
Q 1909 3294 2193 3439 
Q 2478 3584 2822 3584 
Q 3428 3584 3742 3212 
Q 4056 2841 4056 2131 
z
" transform="scale(0.015625)"/>
     </defs>
     <use xlink:href="#DejaVuSans-Bold-43"/>
     <use xlink:href="#DejaVuSans-Bold-68" transform="translate(73.388672 0)"/>
     <use xlink:href="#DejaVuSans-Bold-61" transform="translate(144.580078 0)"/>
     <use xlink:href="#DejaVuSans-Bold-6e" transform="translate(212.060547 0)"/>
     <use xlink:href="#DejaVuSans-Bold-6e" transform="translate(283.251953 0)"/>
     <use xlink:href="#DejaVuSans-Bold-65" transform="translate(354.443359 0)"/>
     <use xlink:href="#DejaVuSans-Bold-6c" transform="translate(422.265625 0)"/>
     <use xlink:href="#DejaVuSans-Bold-73" transform="translate(456.542969 0)"/>
    </g>
   </g>
   <g id="text_6">
    <!-- Traditional ML -->
    <g transform="translate(104.128952 356.212086) scale(0.1 -0.1)">
     <defs>
      <path id="DejaVuSans-Bold-4c" d="M 588 4666 
L 1791 4666 
L 1791 909 
L 3903 909 
L 3903 0 
L 588 0 
L 588 4666 
z
" transform="scale(0.015625)"/>
     </defs>
     <use xlink:href="#DejaVuSans-Bold-54"/>
     <use xlink:href="#DejaVuSans-Bold-72" transform="translate(57.212891 0)"/>
     <use xlink:href="#DejaVuSans-Bold-61" transform="translate(106.529297 0)"/>
     <use xlink:href="#DejaVuSans-Bold-64" transform="translate(174.009766 0)"/>
     <use xlink:href="#DejaVuSans-Bold-69" transform="translate(245.591797 0)"/>
     <use xlink:href="#DejaVuSans-Bold-74" transform="translate(279.869141 0)"/>
     <use xlink:href="#DejaVuSans-Bold-69" transform="translate(327.671875 0)"/>
     <use xlink:href="#DejaVuSans-Bold-6f" transform="translate(361.949219 0)"/>
     <use xlink:href="#DejaVuSans-Bold-6e" transform="translate(430.650391 0)"/>
     <use xlink:href="#DejaVuSans-Bold-61" transform="translate(501.841797 0)"/>
     <use xlink:href="#DejaVuSans-Bold-6c" transform="translate(569.322266 0)"/>
     <use xlink:href="#DejaVuSans-Bold-20" transform="translate(603.599609 0)"/>
     <use xlink:href="#DejaVuSans-Bold-4d" transform="translate(638.414062 0)"/>
     <use xlink:href="#DejaVuSans-Bold-4c" transform="translate(737.925781 0)"/>
    </g>
    <!-- Models -->
    <g transform="translate(124.140671 367.409899) scale(0.1 -0.1)">
     <use xlink:href="#DejaVuSans-Bold-4d"/>
     <use xlink:href="#DejaVuSans-Bold-6f" transform="translate(99.511719 0)"/>
     <use xlink:href="#DejaVuSans-Bold-64" transform="translate(168.212891 0)"/>
     <use xlink:href="#DejaVuSans-Bold-65" transform="translate(239.794922 0)"/>
     <use xlink:href="#DejaVuSans-Bold-6c" transform="translate(307.617188 0)"/>
     <use xlink:href="#DejaVuSans-Bold-73" transform="translate(341.894531 0)"/>
    </g>
   </g>
   <g id="text_7">
    <!-- Deep Learning -->
    <g transform="translate(316.259145 356.173024) scale(0.1 -0.1)">
     <use xlink:href="#DejaVuSans-Bold-44"/>
     <use xlink:href="#DejaVuSans-Bold-65" transform="translate(83.007812 0)"/>
     <use xlink:href="#DejaVuSans-Bold-65" transform="translate(150.830078 0)"/>
     <use xlink:href="#DejaVuSans-Bold-70" transform="translate(218.652344 0)"/>
     <use xlink:href="#DejaVuSans-Bold-20" transform="translate(290.234375 0)"/>
     <use xlink:href="#DejaVuSans-Bold-4c" transform="translate(325.048828 0)"/>
     <use xlink:href="#DejaVuSans-Bold-65" transform="translate(388.769531 0)"/>
     <use xlink:href="#DejaVuSans-Bold-61" transform="translate(456.591797 0)"/>
     <use xlink:href="#DejaVuSans-Bold-72" transform="translate(524.072266 0)"/>
     <use xlink:href="#DejaVuSans-Bold-6e" transform="translate(573.388672 0)"/>
     <use xlink:href="#DejaVuSans-Bold-69" transform="translate(644.580078 0)"/>
     <use xlink:href="#DejaVuSans-Bold-6e" transform="translate(678.857422 0)"/>
     <use xlink:href="#DejaVuSans-Bold-67" transform="translate(750.048828 0)"/>
    </g>
    <!-- Model -->
    <g transform="translate(340.245864 367.448961) scale(0.1 -0.1)">
     <use xlink:href="#DejaVuSans-Bold-4d"/>
     <use xlink:href="#DejaVuSans-Bold-6f" transform="translate(99.511719 0)"/>
     <use xlink:href="#DejaVuSans-Bold-64" transform="translate(168.212891 0)"/>
     <use xlink:href="#DejaVuSans-Bold-65" transform="translate(239.794922 0)"/>
     <use xlink:href="#DejaVuSans-Bold-6c" transform="translate(307.617188 0)"/>
    </g>
   </g>
   <g id="text_8">
    <!-- Meta-Learner -->
    <g transform="translate(562.877803 356.173024) scale(0.1 -0.1)">
     <defs>
      <path id="DejaVuSans-Bold-2d" d="M 347 2297 
L 2309 2297 
L 2309 1388 
L 347 1388 
L 347 2297 
z
" transform="scale(0.015625)"/>
     </defs>
     <use xlink:href="#DejaVuSans-Bold-4d"/>
     <use xlink:href="#DejaVuSans-Bold-65" transform="translate(99.511719 0)"/>
     <use xlink:href="#DejaVuSans-Bold-74" transform="translate(167.333984 0)"/>
     <use xlink:href="#DejaVuSans-Bold-61" transform="translate(215.136719 0)"/>
     <use xlink:href="#DejaVuSans-Bold-2d" transform="translate(282.617188 0)"/>
     <use xlink:href="#DejaVuSans-Bold-4c" transform="translate(324.121094 0)"/>
     <use xlink:href="#DejaVuSans-Bold-65" transform="translate(387.841797 0)"/>
     <use xlink:href="#DejaVuSans-Bold-61" transform="translate(455.664062 0)"/>
     <use xlink:href="#DejaVuSans-Bold-72" transform="translate(523.144531 0)"/>
     <use xlink:href="#DejaVuSans-Bold-6e" transform="translate(572.460938 0)"/>
     <use xlink:href="#DejaVuSans-Bold-65" transform="translate(643.652344 0)"/>
     <use xlink:href="#DejaVuSans-Bold-72" transform="translate(711.474609 0)"/>
    </g>
    <!-- (Stacking) -->
    <g transform="translate(571.841085 367.370836) scale(0.1 -0.1)">
     <defs>
      <path id="DejaVuSans-Bold-53" d="M 3834 4519 
L 3834 3531 
Q 3450 3703 3084 3790 
Q 2719 3878 2394 3878 
Q 1963 3878 1756 3759 
Q 1550 3641 1550 3391 
Q 1550 3203 1689 3098 
Q 1828 2994 2194 2919 
L 2706 2816 
Q 3484 2659 3812 2340 
Q 4141 2022 4141 1434 
Q 4141 663 3683 286 
Q 3225 -91 2284 -91 
Q 1841 -91 1394 -6 
Q 947 78 500 244 
L 500 1259 
Q 947 1022 1364 901 
Q 1781 781 2169 781 
Q 2563 781 2772 912 
Q 2981 1044 2981 1288 
Q 2981 1506 2839 1625 
Q 2697 1744 2272 1838 
L 1806 1941 
Q 1106 2091 782 2419 
Q 459 2747 459 3303 
Q 459 4000 909 4375 
Q 1359 4750 2203 4750 
Q 2588 4750 2994 4692 
Q 3400 4634 3834 4519 
z
" transform="scale(0.015625)"/>
      <path id="DejaVuSans-Bold-6b" d="M 538 4863 
L 1656 4863 
L 1656 2216 
L 2944 3500 
L 4244 3500 
L 2534 1894 
L 4378 0 
L 3022 0 
L 1656 1459 
L 1656 0 
L 538 0 
L 538 4863 
z
" transform="scale(0.015625)"/>
     </defs>
     <use xlink:href="#DejaVuSans-Bold-28"/>
     <use xlink:href="#DejaVuSans-Bold-53" transform="translate(45.703125 0)"/>
     <use xlink:href="#DejaVuSans-Bold-74" transform="translate(117.724609 0)"/>
     <use xlink:href="#DejaVuSans-Bold-61" transform="translate(165.527344 0)"/>
     <use xlink:href="#DejaVuSans-Bold-63" transform="translate(233.007812 0)"/>
     <use xlink:href="#DejaVuSans-Bold-6b" transform="translate(292.285156 0)"/>
     <use xlink:href="#DejaVuSans-Bold-69" transform="translate(358.789062 0)"/>
     <use xlink:href="#DejaVuSans-Bold-6e" transform="translate(393.066406 0)"/>
     <use xlink:href="#DejaVuSans-Bold-67" transform="translate(464.257812 0)"/>
     <use xlink:href="#DejaVuSans-Bold-29" transform="translate(535.839844 0)"/>
    </g>
   </g>
   <g id="text_9">
    <!-- Final Prediction -->
    <g transform="translate(328.169393 493.184789) scale(0.1 -0.1)">
     <use xlink:href="#DejaVuSans-Bold-46"/>
     <use xlink:href="#DejaVuSans-Bold-69" transform="translate(68.310547 0)"/>
     <use xlink:href="#DejaVuSans-Bold-6e" transform="translate(102.587891 0)"/>
     <use xlink:href="#DejaVuSans-Bold-61" transform="translate(173.779297 0)"/>
     <use xlink:href="#DejaVuSans-Bold-6c" transform="translate(241.259766 0)"/>
     <use xlink:href="#DejaVuSans-Bold-20" transform="translate(275.537109 0)"/>
     <use xlink:href="#DejaVuSans-Bold-50" transform="translate(310.351562 0)"/>
     <use xlink:href="#DejaVuSans-Bold-72" transform="translate(383.642578 0)"/>
     <use xlink:href="#DejaVuSans-Bold-65" transform="translate(432.958984 0)"/>
     <use xlink:href="#DejaVuSans-Bold-64" transform="translate(500.78125 0)"/>
     <use xlink:href="#DejaVuSans-Bold-69" transform="translate(572.363281 0)"/>
     <use xlink:href="#DejaVuSans-Bold-63" transform="translate(606.640625 0)"/>
     <use xlink:href="#DejaVuSans-Bold-74" transform="translate(665.917969 0)"/>
     <use xlink:href="#DejaVuSans-Bold-69" transform="translate(713.720703 0)"/>
     <use xlink:href="#DejaVuSans-Bold-6f" transform="translate(747.998047 0)"/>
     <use xlink:href="#DejaVuSans-Bold-6e" transform="translate(816.699219 0)"/>
    </g>
    <!-- (Digit 6 vs 9) -->
    <g transform="translate(336.031893 504.382601) scale(0.1 -0.1)">
     <defs>
      <path id="DejaVuSans-Bold-36" d="M 2316 2303 
Q 2000 2303 1842 2098 
Q 1684 1894 1684 1484 
Q 1684 1075 1842 870 
Q 2000 666 2316 666 
Q 2634 666 2792 870 
Q 2950 1075 2950 1484 
Q 2950 1894 2792 2098 
Q 2634 2303 2316 2303 
z
M 3803 4544 
L 3803 3681 
Q 3506 3822 3243 3889 
Q 2981 3956 2731 3956 
Q 2194 3956 1894 3657 
Q 1594 3359 1544 2772 
Q 1750 2925 1990 3001 
Q 2231 3078 2516 3078 
Q 3231 3078 3670 2659 
Q 4109 2241 4109 1563 
Q 4109 813 3618 361 
Q 3128 -91 2303 -91 
Q 1394 -91 895 523 
Q 397 1138 397 2266 
Q 397 3422 980 4083 
Q 1563 4744 2578 4744 
Q 2900 4744 3203 4694 
Q 3506 4644 3803 4544 
z
" transform="scale(0.015625)"/>
      <path id="DejaVuSans-Bold-39" d="M 641 103 
L 641 966 
Q 928 831 1190 764 
Q 1453 697 1709 697 
Q 2247 697 2547 995 
Q 2847 1294 2900 1881 
Q 2688 1725 2447 1647 
Q 2206 1569 1925 1569 
Q 1209 1569 770 1986 
Q 331 2403 331 3084 
Q 331 3838 820 4291 
Q 1309 4744 2131 4744 
Q 3044 4744 3544 4128 
Q 4044 3513 4044 2388 
Q 4044 1231 3459 570 
Q 2875 -91 1856 -91 
Q 1528 -91 1228 -42 
Q 928 6 641 103 
z
M 2125 2350 
Q 2441 2350 2600 2554 
Q 2759 2759 2759 3169 
Q 2759 3575 2600 3781 
Q 2441 3988 2125 3988 
Q 1809 3988 1650 3781 
Q 1491 3575 1491 3169 
Q 1491 2759 1650 2554 
Q 1809 2350 2125 2350 
z
" transform="scale(0.015625)"/>
     </defs>
     <use xlink:href="#DejaVuSans-Bold-28"/>
     <use xlink:href="#DejaVuSans-Bold-44" transform="translate(45.703125 0)"/>
     <use xlink:href="#DejaVuSans-Bold-69" transform="translate(128.710938 0)"/>
     <use xlink:href="#DejaVuSans-Bold-67" transform="translate(162.988281 0)"/>
     <use xlink:href="#DejaVuSans-Bold-69" transform="translate(234.570312 0)"/>
     <use xlink:href="#DejaVuSans-Bold-74" transform="translate(268.847656 0)"/>
     <use xlink:href="#DejaVuSans-Bold-20" transform="translate(316.650391 0)"/>
     <use xlink:href="#DejaVuSans-Bold-36" transform="translate(351.464844 0)"/>
     <use xlink:href="#DejaVuSans-Bold-20" transform="translate(421.044922 0)"/>
     <use xlink:href="#DejaVuSans-Bold-76" transform="translate(455.859375 0)"/>
     <use xlink:href="#DejaVuSans-Bold-73" transform="translate(521.044922 0)"/>
     <use xlink:href="#DejaVuSans-Bold-20" transform="translate(580.566406 0)"/>
     <use xlink:href="#DejaVuSans-Bold-39" transform="translate(615.380859 0)"/>
     <use xlink:href="#DejaVuSans-Bold-29" transform="translate(684.960938 0)"/>
    </g>
   </g>
   <g id="patch_11">
    <path d="M 128.988235 132.701968 
Q 128.988235 145.922139 128.988235 156.906243 
" style="fill: none; stroke: #00008b; stroke-width: 2; stroke-linecap: round"/>
    <path d="M 131.388235 152.106243 
L 128.988235 156.906243 
L 126.588235 152.106243 
" style="fill: none; stroke: #00008b; stroke-width: 2; stroke-linecap: round"/>
   </g>
   <g id="patch_12">
    <path d="M 130.942745 221.621029 
Q 235.552236 199.20471 337.975295 177.256912 
" style="fill: none; stroke: #00008b; stroke-width: 2; stroke-linecap: round"/>
    <path d="M 332.778973 175.915926 
L 337.975295 177.256912 
L 333.784713 180.609377 
" style="fill: none; stroke: #00008b; stroke-width: 2; stroke-linecap: round"/>
   </g>
   <g id="patch_13">
    <path d="M 341.008217 178.033409 
Q 326.893602 199.205333 314.019334 218.516735 
" style="fill: none; stroke: #00008b; stroke-width: 2; stroke-linecap: round"/>
    <path d="M 318.678815 215.854174 
L 314.019334 218.516735 
L 314.684974 213.191613 
" style="fill: none; stroke: #00008b; stroke-width: 2; stroke-linecap: round"/>
   </g>
   <g id="patch_14">
    <path d="M 343.904442 177.262662 
Q 387.786581 199.203732 429.66872 220.144801 
" style="fill: none; stroke: #00008b; stroke-width: 2; stroke-linecap: round"/>
    <path d="M 426.448782 215.851551 
L 429.66872 220.144801 
L 424.302157 220.144801 
" style="fill: none; stroke: #00008b; stroke-width: 2; stroke-linecap: round"/>
   </g>
   <g id="patch_15">
    <path d="M 309.700514 283.292166 
Q 227.939689 298.157771 148.378863 312.623375 
" style="fill: none; stroke: #00008b; stroke-width: 2; stroke-linecap: round"/>
    <path d="M 153.530763 314.126013 
L 148.378863 312.623375 
L 152.672113 309.403437 
" style="fill: none; stroke: #00008b; stroke-width: 2; stroke-linecap: round"/>
   </g>
   <g id="patch_16">
    <path d="M 431.602805 283.676378 
Q 395.398902 298.157939 361.271135 311.809046 
" style="fill: none; stroke: #00008b; stroke-width: 2; stroke-linecap: round"/>
    <path d="M 366.61916 312.254715 
L 361.271135 311.809046 
L 364.836485 307.798027 
" style="fill: none; stroke: #00008b; stroke-width: 2; stroke-linecap: round"/>
   </g>
   <g id="patch_17">
    <path d="M 146.173476 404.329864 
Q 372.56545 359.051469 596.764778 314.211603 
" style="fill: none; stroke: #00008b; stroke-width: 2; stroke-linecap: round"/>
    <path d="M 591.587312 312.799567 
L 596.764778 314.211603 
L 592.52867 317.506354 
" style="fill: none; stroke: #00008b; stroke-width: 2; stroke-linecap: round"/>
   </g>
   <g id="patch_18">
    <path d="M 359.210668 404.021147 
Q 479.12921 359.051693 596.954056 314.867376 
" style="fill: none; stroke: #00008b; stroke-width: 2; stroke-linecap: round"/>
    <path d="M 591.61698 314.305578 
L 596.954056 314.867376 
L 593.302373 318.799958 
" style="fill: none; stroke: #00008b; stroke-width: 2; stroke-linecap: round"/>
   </g>
   <g id="patch_19">
    <path d="M 598.983811 405.237896 
Q 486.739898 435.169606 376.656552 464.525165 
" style="fill: none; stroke: #00008b; stroke-width: 2; stroke-linecap: round"/>
    <path d="M 381.91287 465.607348 
L 376.656552 464.525165 
L 380.676089 460.96942 
" style="fill: none; stroke: #00008b; stroke-width: 2; stroke-linecap: round"/>
   </g>
   <g id="text_10">
    <!-- System Architecture for EEG-Based Digit Classification -->
    <g transform="translate(125.894706 19.3575) scale(0.16 -0.16)">
     <defs>
      <path id="DejaVuSans-Bold-79" d="M 78 3500 
L 1197 3500 
L 2138 1125 
L 2938 3500 
L 4056 3500 
L 2584 -331 
Q 2363 -916 2067 -1148 
Q 1772 -1381 1288 -1381 
L 641 -1381 
L 641 -647 
L 991 -647 
Q 1275 -647 1404 -556 
Q 1534 -466 1606 -231 
L 1638 -134 
L 78 3500 
z
" transform="scale(0.015625)"/>
      <path id="DejaVuSans-Bold-6d" d="M 3781 2919 
Q 3994 3244 4286 3414 
Q 4578 3584 4928 3584 
Q 5531 3584 5847 3212 
Q 6163 2841 6163 2131 
L 6163 0 
L 5038 0 
L 5038 1825 
Q 5041 1866 5042 1909 
Q 5044 1953 5044 2034 
Q 5044 2406 4934 2573 
Q 4825 2741 4581 2741 
Q 4263 2741 4089 2478 
Q 3916 2216 3909 1719 
L 3909 0 
L 2784 0 
L 2784 1825 
Q 2784 2406 2684 2573 
Q 2584 2741 2328 2741 
Q 2006 2741 1831 2477 
Q 1656 2213 1656 1722 
L 1656 0 
L 531 0 
L 531 3500 
L 1656 3500 
L 1656 2988 
Q 1863 3284 2130 3434 
Q 2397 3584 2719 3584 
Q 3081 3584 3359 3409 
Q 3638 3234 3781 2919 
z
" transform="scale(0.015625)"/>
      <path id="DejaVuSans-Bold-41" d="M 3419 850 
L 1538 850 
L 1241 0 
L 31 0 
L 1759 4666 
L 3194 4666 
L 4922 0 
L 3713 0 
L 3419 850 
z
M 1838 1716 
L 3116 1716 
L 2478 3572 
L 1838 1716 
z
" transform="scale(0.015625)"/>
      <path id="DejaVuSans-Bold-66" d="M 2841 4863 
L 2841 4128 
L 2222 4128 
Q 1984 4128 1890 4042 
Q 1797 3956 1797 3744 
L 1797 3500 
L 2753 3500 
L 2753 2700 
L 1797 2700 
L 1797 0 
L 678 0 
L 678 2700 
L 122 2700 
L 122 3500 
L 678 3500 
L 678 3744 
Q 678 4316 997 4589 
Q 1316 4863 1984 4863 
L 2841 4863 
z
" transform="scale(0.015625)"/>
     </defs>
     <use xlink:href="#DejaVuSans-Bold-53"/>
     <use xlink:href="#DejaVuSans-Bold-79" transform="translate(72.021484 0)"/>
     <use xlink:href="#DejaVuSans-Bold-73" transform="translate(137.207031 0)"/>
     <use xlink:href="#DejaVuSans-Bold-74" transform="translate(196.728516 0)"/>
     <use xlink:href="#DejaVuSans-Bold-65" transform="translate(244.53125 0)"/>
     <use xlink:href="#DejaVuSans-Bold-6d" transform="translate(312.353516 0)"/>
     <use xlink:href="#DejaVuSans-Bold-20" transform="translate(416.552734 0)"/>
     <use xlink:href="#DejaVuSans-Bold-41" transform="translate(451.367188 0)"/>
     <use xlink:href="#DejaVuSans-Bold-72" transform="translate(528.759766 0)"/>
     <use xlink:href="#DejaVuSans-Bold-63" transform="translate(578.076172 0)"/>
     <use xlink:href="#DejaVuSans-Bold-68" transform="translate(637.353516 0)"/>
     <use xlink:href="#DejaVuSans-Bold-69" transform="translate(708.544922 0)"/>
     <use xlink:href="#DejaVuSans-Bold-74" transform="translate(742.822266 0)"/>
     <use xlink:href="#DejaVuSans-Bold-65" transform="translate(790.625 0)"/>
     <use xlink:href="#DejaVuSans-Bold-63" transform="translate(858.447266 0)"/>
     <use xlink:href="#DejaVuSans-Bold-74" transform="translate(917.724609 0)"/>
     <use xlink:href="#DejaVuSans-Bold-75" transform="translate(965.527344 0)"/>
     <use xlink:href="#DejaVuSans-Bold-72" transform="translate(1036.71875 0)"/>
     <use xlink:href="#DejaVuSans-Bold-65" transform="translate(1086.035156 0)"/>
     <use xlink:href="#DejaVuSans-Bold-20" transform="translate(1153.857422 0)"/>
     <use xlink:href="#DejaVuSans-Bold-66" transform="translate(1188.671875 0)"/>
     <use xlink:href="#DejaVuSans-Bold-6f" transform="translate(1232.177734 0)"/>
     <use xlink:href="#DejaVuSans-Bold-72" transform="translate(1300.878906 0)"/>
     <use xlink:href="#DejaVuSans-Bold-20" transform="translate(1350.195312 0)"/>
     <use xlink:href="#DejaVuSans-Bold-45" transform="translate(1385.009766 0)"/>
     <use xlink:href="#DejaVuSans-Bold-45" transform="translate(1453.320312 0)"/>
     <use xlink:href="#DejaVuSans-Bold-47" transform="translate(1521.630859 0)"/>
     <use xlink:href="#DejaVuSans-Bold-2d" transform="translate(1603.710938 0)"/>
     <use xlink:href="#DejaVuSans-Bold-42" transform="translate(1645.214844 0)"/>
     <use xlink:href="#DejaVuSans-Bold-61" transform="translate(1721.435547 0)"/>
     <use xlink:href="#DejaVuSans-Bold-73" transform="translate(1788.916016 0)"/>
     <use xlink:href="#DejaVuSans-Bold-65" transform="translate(1848.4375 0)"/>
     <use xlink:href="#DejaVuSans-Bold-64" transform="translate(1916.259766 0)"/>
     <use xlink:href="#DejaVuSans-Bold-20" transform="translate(1987.841797 0)"/>
     <use xlink:href="#DejaVuSans-Bold-44" transform="translate(2022.65625 0)"/>
     <use xlink:href="#DejaVuSans-Bold-69" transform="translate(2105.664062 0)"/>
     <use xlink:href="#DejaVuSans-Bold-67" transform="translate(2139.941406 0)"/>
     <use xlink:href="#DejaVuSans-Bold-69" transform="translate(2211.523438 0)"/>
     <use xlink:href="#DejaVuSans-Bold-74" transform="translate(2245.800781 0)"/>
     <use xlink:href="#DejaVuSans-Bold-20" transform="translate(2293.603516 0)"/>
     <use xlink:href="#DejaVuSans-Bold-43" transform="translate(2328.417969 0)"/>
     <use xlink:href="#DejaVuSans-Bold-6c" transform="translate(2401.806641 0)"/>
     <use xlink:href="#DejaVuSans-Bold-61" transform="translate(2436.083984 0)"/>
     <use xlink:href="#DejaVuSans-Bold-73" transform="translate(2503.564453 0)"/>
     <use xlink:href="#DejaVuSans-Bold-73" transform="translate(2563.085938 0)"/>
     <use xlink:href="#DejaVuSans-Bold-69" transform="translate(2622.607422 0)"/>
     <use xlink:href="#DejaVuSans-Bold-66" transform="translate(2656.884766 0)"/>
     <use xlink:href="#DejaVuSans-Bold-69" transform="translate(2700.390625 0)"/>
     <use xlink:href="#DejaVuSans-Bold-63" transform="translate(2734.667969 0)"/>
     <use xlink:href="#DejaVuSans-Bold-61" transform="translate(2793.945312 0)"/>
     <use xlink:href="#DejaVuSans-Bold-74" transform="translate(2861.425781 0)"/>
     <use xlink:href="#DejaVuSans-Bold-69" transform="translate(2909.228516 0)"/>
     <use xlink:href="#DejaVuSans-Bold-6f" transform="translate(2943.505859 0)"/>
     <use xlink:href="#DejaVuSans-Bold-6e" transform="translate(3012.207031 0)"/>
    </g>
   </g>
  </g>
 </g>
 <defs>
  <clipPath id="p5feb3d4a54">
   <rect x="7.2" y="39.3575" width="730.729412" height="517.6"/>
  </clipPath>
 </defs>
</svg>
